<svg width="147" height="56" viewBox="0 0 147 56" fill="none" xmlns="http://www.w3.org/2000/svg">
<path d="M12.0575 37C9.89574 37 8.32166 36.9895 7.33523 36.9685C6.43276 36.9685 5.74016 36.958 5.25744 36.937L2.67594 36.9056C2.48705 36.9056 2.30866 36.8216 2.14075 36.6537C1.97285 36.4858 1.8889 36.3074 1.8889 36.1185V29.1925V26.1703L1.85742 23.5888C1.85742 22.7283 1.87841 21.6474 1.92038 20.3462C1.92038 20.0734 1.95186 19.3703 2.01483 18.2369V17.5128C2.01483 16.9252 2.13026 16.453 2.36113 16.0962C2.46606 15.9073 2.63397 15.8128 2.86483 15.8128C3.89323 15.8128 5.01608 15.8338 6.23337 15.8758C6.40127 15.8968 6.64263 15.9073 6.95745 15.9073C7.65005 15.9073 8.16425 15.9178 8.50005 15.9388H10.2001C10.284 15.9388 10.5254 15.9388 10.9241 15.9388C11.3439 15.9388 11.6692 15.9912 11.9001 16.0962C12.2779 16.306 12.4667 16.7888 12.4667 17.5443L12.4353 17.7962C12.4353 17.8591 12.4143 18.0166 12.3723 18.2684C12.3093 18.5832 12.2779 18.8141 12.2779 18.961C12.2779 19.1919 12.3093 19.4857 12.3723 19.8425C12.4143 20.0943 12.4353 20.2622 12.4353 20.3462L12.4667 20.5351V24.9425V26.9888V28.9407V29.3185C12.4667 29.4864 12.5612 29.5913 12.7501 29.6333C12.813 29.6543 12.9495 29.6648 13.1593 29.6648H15.4575C16.0242 29.6438 16.8847 29.6333 18.039 29.6333C18.2699 29.6333 18.4588 29.7067 18.6057 29.8537C18.7526 29.9796 18.826 30.116 18.826 30.2629V36.2759V36.3389C18.826 36.5068 18.7421 36.6432 18.5742 36.7481C18.3853 36.8321 18.1649 36.8846 17.9131 36.9056C17.6402 36.9685 17.21 37 16.6223 37H12.0575ZM23.3909 37.0315C23.244 37.0315 23.1075 36.979 22.9816 36.8741C22.8557 36.7481 22.7612 36.5907 22.6983 36.4018C22.6143 36.0241 22.5514 35.6043 22.5094 35.1426C22.4884 34.9957 22.4779 34.7963 22.4779 34.5444V34.1352L22.5094 30.2314C22.5094 28.9092 22.5409 27.608 22.6038 26.3277V16.3795C22.6038 16.1696 22.7403 16.0647 23.0131 16.0647C24.4613 16.0647 25.5421 16.0542 26.2557 16.0332H29.4039C29.4668 16.0332 29.5193 16.0227 29.5613 16.0017C29.6033 15.9807 29.6557 15.9702 29.7187 15.9702C29.9915 15.9283 30.3693 15.9178 30.852 15.9388C31.2088 15.9388 31.5866 15.9702 31.9854 16.0332C32.1113 16.1172 32.2057 16.1381 32.2687 16.0962C32.3107 16.0962 32.3946 16.0752 32.5206 16.0332C32.8354 16.0332 33.0767 16.0542 33.2446 16.0962C33.4335 16.1381 33.5804 16.2326 33.6854 16.3795C33.7903 16.5684 33.8743 16.7993 33.9372 17.0721C33.9582 17.282 33.9687 17.7227 33.9687 18.3943V24.5333V25.0055C33.9477 25.1734 33.9372 25.5512 33.9372 26.1388C33.9372 26.7685 33.9163 27.2617 33.8743 27.6185L33.8428 29.0351C33.8218 29.35 33.8113 29.7487 33.8113 30.2314L33.7798 30.7351V32.75C33.7798 34.0092 33.7274 35.0796 33.6224 35.9611C33.6224 36.2549 33.549 36.5488 33.4021 36.8426C33.0243 36.8426 32.4786 36.8636 31.765 36.9056C31.4292 36.9056 31.2088 36.9265 31.1039 36.9685H30.7891H30.6946C30.5477 36.9685 30.4743 36.9475 30.4743 36.9056C30.3064 36.8636 30.2119 36.8426 30.1909 36.8426L29.9391 36.9685H27.0428C27.0218 36.9895 26.8539 37 26.539 37H25.3427H24.1779L23.3909 37.0315Z" fill="url(#paint0_linear_166_291)"/>
<path d="M81.3654 37.2519C81.2395 37.1049 81.1765 37.021 81.1765 37L77.8709 33.1907C77.808 33.1278 77.703 33.0018 77.5561 32.8129C77.4092 32.624 77.2728 32.4666 77.1469 32.3407L76.6746 31.8685C76.5277 31.7635 76.4333 31.7111 76.3913 31.7111C76.3073 31.7111 76.2444 31.7426 76.2024 31.8055C76.1604 31.8475 76.1394 31.9 76.1394 31.9629V32.4037V33.0963C76.1394 33.4321 76.1185 33.6944 76.0765 33.8833V34.7018C76.0555 34.8907 76.045 35.1216 76.045 35.3944V35.8037V36.2759V36.4018C76.045 36.6117 75.9715 36.7272 75.8246 36.7481C75.7197 36.8321 75.5623 36.8531 75.3524 36.8111C74.261 36.8531 73.474 36.8741 72.9913 36.8741L68.9616 36.8426H68.4264H67.7968C67.524 36.8426 67.3351 36.8321 67.2301 36.8111H67.0098L65.5931 36.6852L65.4986 36.4333C65.4777 36.4333 65.4672 36.3179 65.4672 36.087C65.4672 35.7302 65.4567 35.4259 65.4357 35.1741V33.9148C65.3937 33.6 65.3727 33.1278 65.3727 32.4981L65.3097 30.074C65.2888 29.5493 65.2363 28.7623 65.1523 27.7129L65.1209 26.9259C65.0789 26.2123 65.0579 25.6876 65.0579 25.3518V25.037C65.0999 24.911 65.1209 24.7221 65.1209 24.4703C65.1418 24.1975 65.1523 23.8826 65.1523 23.5258L65.1209 22.8962C65.1209 22.7493 65.1104 22.6339 65.0894 22.5499C65.0684 22.445 65.0579 22.3715 65.0579 22.3295C65.0579 22.2876 65.0684 22.1616 65.0894 21.9518C65.1104 21.7419 65.1209 21.532 65.1209 21.3221C65.1418 21.0703 65.1523 20.7555 65.1523 20.3777V19.9055V19.2758C65.1314 18.919 65.1209 18.3943 65.1209 17.7017C65.0789 17.5548 65.0579 17.3449 65.0579 17.0721V16.7573C64.9949 16.2746 65.2468 15.9912 65.8135 15.9073C65.9814 15.8443 66.2227 15.8128 66.5375 15.8128H67.2301H70.7246H73.3061H74.9746H75.982C76.2759 15.8128 76.4543 15.9912 76.5172 16.348C76.5382 16.411 76.5487 16.5474 76.5487 16.7573V17.2295C76.5487 17.7542 76.5277 18.5412 76.4857 19.5906L76.4543 20.4406C76.4123 20.9863 76.3913 21.3641 76.3913 21.574C76.6432 21.574 76.874 21.511 77.0839 21.3851C77.2308 21.2382 77.3043 21.1647 77.3043 21.1647C77.3462 21.1437 77.3882 21.1122 77.4302 21.0703C77.4932 21.0073 77.5456 20.9548 77.5876 20.9129C77.6716 20.8709 77.8709 20.6925 78.1858 20.3777C78.7104 19.853 79.5709 19.045 80.7672 17.9536C81.9216 16.8622 82.8241 16.0647 83.4747 15.561C83.8734 15.2881 84.1253 15.1412 84.2302 15.1202C84.2722 15.1202 84.3457 15.1727 84.4506 15.2776C84.5555 15.3826 84.629 15.456 84.671 15.498C84.671 15.498 84.7654 15.5925 84.9543 15.7814C84.9963 15.8863 85.0488 15.9493 85.1117 15.9702L85.3006 16.1906C85.4895 16.3375 85.6154 16.4635 85.6784 16.5684L86.0562 16.9147C86.1191 16.9777 86.1716 17.0406 86.2136 17.1036C86.2556 17.1456 86.287 17.177 86.308 17.198C86.434 17.4079 86.7698 17.8591 87.3154 18.5517C87.7352 19.0345 88.05 19.5067 88.2599 19.9684V20.0314C88.2599 20.3252 87.9661 20.7869 87.3784 21.4166L86.6858 22.1092C86.434 22.34 86.2556 22.5184 86.1506 22.6444C86.1296 22.6444 86.0981 22.6653 86.0562 22.7073C86.0142 22.7493 85.9617 22.8018 85.8988 22.8647L84.6395 23.8407C84.6395 23.8407 84.4296 24.0505 84.0099 24.4703L83.4432 24.911C83.4012 24.932 83.3173 24.995 83.1913 25.0999C83.0864 25.1839 82.992 25.2363 82.908 25.2573C82.845 25.2993 82.7716 25.3518 82.6876 25.4147C82.6037 25.4567 82.5512 25.4987 82.5302 25.5407C82.4882 25.5617 82.4673 25.6561 82.4673 25.824C82.4673 26.1598 82.6352 26.4746 82.971 26.7685C83.1179 26.9364 83.2648 27.0623 83.4117 27.1462L83.8525 27.524C84.2932 27.9648 84.5136 28.1851 84.5136 28.1851C84.9333 28.5419 85.6889 29.224 86.7802 30.2314C87.6198 30.987 88.2809 31.6691 88.7636 32.2777C88.9735 32.5926 89.0784 32.8234 89.0784 32.9703C89.0784 33.0963 89.0574 33.2012 89.0154 33.2852C88.9945 33.3691 88.9315 33.4636 88.8266 33.5685C88.4068 33.9253 88.0185 34.1876 87.6617 34.3555C87.3049 34.5444 86.9586 34.7858 86.6228 35.0796C86.287 35.3525 85.9617 35.6253 85.6469 35.8981C85.3741 36.15 85.0593 36.3809 84.7025 36.5907L84.0728 36.9056C84.0728 36.9056 83.9784 36.9685 83.7895 37.0944C83.6006 37.2204 83.4642 37.3253 83.3802 37.4093C83.0654 37.5982 82.7401 37.6926 82.4043 37.6926C82.2154 37.6926 82.016 37.6506 81.8061 37.5667L81.3654 37.2519ZM99.4521 37.7241C97.4583 37.7241 95.9472 37.2623 94.9188 36.3389C94.0583 35.6043 93.4706 34.429 93.1558 32.8129C92.9459 31.7426 92.841 30.137 92.841 27.9962C92.841 26.4431 92.9249 24.7431 93.0928 22.8962C93.0928 22.6024 93.1138 22.1826 93.1558 21.6369C93.1768 21.1962 93.1978 20.5771 93.2187 19.7795C93.2397 18.961 93.2502 18.2474 93.2502 17.6388C93.2502 17.324 93.2292 17.1036 93.1873 16.9777C93.1453 16.6838 93.1243 16.453 93.1243 16.2851C93.1243 15.9493 93.4811 15.7814 94.1947 15.7814H96.0836C97.4268 15.7394 98.7175 15.7814 99.9558 15.9073C100.816 15.9912 101.477 16.0857 101.939 16.1906C102.506 16.3375 102.884 16.5474 103.073 16.8202C103.24 17.1351 103.324 17.6807 103.324 18.4573C103.324 19.4017 103.314 20.2727 103.293 21.0703C103.272 21.8468 103.251 22.5394 103.23 23.1481C103.209 23.295 103.198 23.5258 103.198 23.8407C103.198 24.2604 103.177 24.974 103.135 25.9814C103.093 27.8283 103.073 29.3709 103.073 30.6092C103.073 31.3858 103.104 31.9524 103.167 32.3092C103.23 32.645 103.398 32.8129 103.671 32.8129C104.237 32.8129 104.856 32.6765 105.528 32.4037C105.948 32.1938 106.242 32.0364 106.41 31.9315V19.2758C106.347 18.7931 106.315 18.3209 106.315 17.8591C106.273 17.7332 106.252 17.5548 106.252 17.324V17.0406C106.252 16.6628 106.326 16.4005 106.473 16.2536C106.619 16.1277 106.966 16.0647 107.511 16.0647C108.12 16.0647 108.907 16.0332 109.873 15.9702C110.208 15.9702 110.67 15.9493 111.258 15.9073C111.677 15.9073 111.982 15.8758 112.171 15.8128C112.297 15.8128 112.444 15.8338 112.611 15.8758C112.863 15.8758 113.073 15.8863 113.241 15.9073L114.186 15.9388C114.647 15.9597 115.224 16.0437 115.917 16.1906L116.799 16.4425C116.987 16.5054 117.103 16.5789 117.145 16.6628C117.208 16.7468 117.239 16.8517 117.239 16.9777C117.239 20.0838 117.176 23.2005 117.05 26.3277C116.924 30.4413 116.861 33.5475 116.861 35.6463C116.861 36.4858 116.463 36.9056 115.665 36.9056H114.06C113.64 36.9475 112.874 36.9895 111.761 37.0315C111.132 37.0735 110.639 37.0944 110.282 37.0944L108.834 37.1574C108.267 37.1574 107.837 37.063 107.543 36.8741C107.249 36.6852 107.05 36.3599 106.945 35.8981C105.811 36.4648 104.615 36.916 103.356 37.2519C102.097 37.5667 100.795 37.7241 99.4521 37.7241ZM122.741 36.9685C122.384 36.9685 122.154 36.7377 122.049 36.2759C121.944 36.0451 121.891 35.6253 121.891 35.0167C121.891 33.1907 121.87 31.5642 121.828 30.137C121.765 28.0802 121.734 25.908 121.734 23.6203V16.6943C121.734 16.5054 121.818 16.327 121.986 16.1591C122.174 15.9702 122.363 15.8758 122.552 15.8758L126.173 15.9073C126.844 15.9283 127.726 15.9388 128.817 15.9388C130.391 15.9388 131.609 15.9283 132.469 15.9073L133.634 15.8758C134.893 15.8338 135.932 15.8128 136.751 15.8128C138.073 15.8128 139.332 16.0017 140.528 16.3795C141.934 16.7993 143.078 17.5233 143.96 18.5517C144.946 19.6641 145.439 21.1647 145.439 23.0536C145.439 26.2438 144.631 28.5524 143.015 29.9796C141.588 31.3228 139.458 31.9944 136.625 31.9944H132.312C132.333 32.4771 132.343 32.9913 132.343 33.537C132.343 33.7259 132.333 33.9568 132.312 34.2296C132.312 34.4815 132.312 34.8278 132.312 35.2685C132.312 35.9611 132.165 36.4018 131.871 36.5907C131.64 36.7796 131.21 36.8741 130.58 36.8741C129.657 36.8741 129.017 36.8846 128.66 36.9056C127.212 36.9056 126.057 36.9265 125.197 36.9685H122.741ZM134.012 28.2166C134.452 28.2166 134.778 27.7969 134.988 26.9573C135.155 26.3907 135.281 25.5512 135.365 24.4388C135.407 23.8302 135.428 23.1481 135.428 22.3925V22.0462C135.428 21.7104 135.376 21.2067 135.271 20.5351C135.187 20.1573 135.092 19.8635 134.988 19.6536C134.883 19.4227 134.746 19.2338 134.578 19.0869C134.41 18.898 134.221 18.8036 134.012 18.8036C133.907 18.8036 133.812 18.8456 133.728 18.9295C133.665 19.0135 133.602 19.1184 133.539 19.2443C133.309 19.6221 133.099 20.4616 132.91 21.7629C132.847 22.1407 132.794 22.7073 132.752 23.4629C132.647 24.6172 132.595 26.1598 132.595 28.0907C132.595 28.0907 132.605 28.1012 132.626 28.1222C132.647 28.1432 132.689 28.1641 132.752 28.1851L133.13 28.2166H134.012Z" fill="url(#paint1_linear_166_291)"/>
<path d="M53.7256 36.6179L48.915 38.1843L51.5234 45.9412L48.3828 46.9978L45.7578 39.2136L40.7607 40.8425V20.7117L53.7256 36.6179Z" fill="url(#paint2_linear_166_291)"/>
<path d="M45.0684 16.179L49.8789 14.6116L47.2705 6.85571L50.4111 5.79907L53.0361 13.5823L58.0332 11.9534V32.0852L45.0684 16.179Z" fill="url(#paint3_linear_166_291)"/>
<rect x="119.391" y="40.5217" width="18.372" height="6.44214" rx="1.55089" fill="url(#paint4_linear_166_291)" stroke="url(#paint5_linear_166_291)" stroke-width="0.715794"/>
<path d="M119.988 42.0728C119.988 41.5457 120.416 41.1184 120.943 41.1184H131.441C131.968 41.1184 132.395 41.5457 132.395 42.0728V46.3676H120.943C120.416 46.3676 119.988 45.9403 119.988 45.4132V42.0728Z" fill="url(#paint6_linear_166_291)"/>
<path d="M134.106 45.1184H133.244V44.9447L133.525 44.8812V42.9739L133.244 42.9071V42.7334H134.106V42.9071L133.825 42.9739V44.8812L134.106 44.9447V45.1184ZM136.477 43.9025C136.477 44.1697 136.427 44.3935 136.327 44.5739C136.229 44.7543 136.087 44.8901 135.902 44.9815C135.718 45.0728 135.494 45.1184 135.231 45.1184H134.566V42.7334H135.301C135.542 42.7334 135.75 42.7779 135.926 42.867C136.102 42.9561 136.238 43.0875 136.333 43.2612C136.429 43.4326 136.477 43.6464 136.477 43.9025ZM136.16 43.9125C136.16 43.701 136.124 43.5273 136.053 43.3914C135.984 43.2556 135.881 43.1554 135.745 43.0908C135.612 43.024 135.449 42.9906 135.258 42.9906H134.867V44.8612H135.191C135.514 44.8612 135.755 44.7821 135.916 44.624C136.078 44.4637 136.16 44.2265 136.16 43.9125Z" fill="url(#paint7_linear_166_291)"/>
<path d="M123.097 44.4804C123.097 44.6229 123.062 44.7443 122.993 44.8445C122.924 44.9425 122.825 45.0182 122.696 45.0716C122.569 45.1251 122.419 45.1518 122.245 45.1518C122.156 45.1518 122.07 45.1474 121.988 45.1385C121.908 45.1295 121.834 45.1173 121.767 45.1017C121.701 45.0839 121.641 45.0627 121.59 45.0382V44.751C121.67 44.7866 121.77 44.8189 121.888 44.8478C122.008 44.8768 122.131 44.8913 122.258 44.8913C122.376 44.8913 122.475 44.8757 122.556 44.8445C122.636 44.8133 122.696 44.7688 122.736 44.7109C122.776 44.653 122.796 44.5851 122.796 44.5071C122.796 44.4292 122.779 44.3635 122.746 44.31C122.713 44.2566 122.655 44.2076 122.572 44.1631C122.492 44.1163 122.38 44.0673 122.235 44.0161C122.133 43.9782 122.042 43.9381 121.964 43.8958C121.889 43.8513 121.825 43.8012 121.774 43.7455C121.723 43.6898 121.684 43.6264 121.657 43.5551C121.633 43.4839 121.62 43.4015 121.62 43.3079C121.62 43.181 121.653 43.073 121.717 42.9839C121.782 42.8926 121.871 42.8225 121.984 42.7735C122.1 42.7245 122.233 42.7 122.382 42.7C122.513 42.7 122.634 42.7122 122.743 42.7367C122.852 42.7612 122.951 42.7935 123.04 42.8336L122.946 43.0908C122.864 43.0552 122.774 43.0251 122.676 43.0006C122.58 42.9761 122.48 42.9639 122.375 42.9639C122.275 42.9639 122.192 42.9783 122.125 43.0073C122.058 43.0362 122.008 43.0774 121.974 43.1309C121.941 43.1821 121.924 43.2422 121.924 43.3113C121.924 43.3914 121.941 43.4582 121.974 43.5117C122.008 43.5651 122.062 43.613 122.138 43.6553C122.214 43.6976 122.316 43.7433 122.445 43.7923C122.586 43.8435 122.704 43.8992 122.799 43.9593C122.897 44.0172 122.971 44.0873 123.02 44.1697C123.071 44.2521 123.097 44.3557 123.097 44.4804ZM124.215 43.2979C124.433 43.2979 124.595 43.3458 124.7 43.4415C124.804 43.5373 124.857 43.6898 124.857 43.8992V45.1184H124.643L124.586 44.8645H124.573C124.521 44.9291 124.468 44.9837 124.412 45.0282C124.359 45.0705 124.297 45.1017 124.225 45.1217C124.156 45.1418 124.072 45.1518 123.971 45.1518C123.864 45.1518 123.768 45.1329 123.681 45.095C123.596 45.0572 123.529 44.9993 123.48 44.9213C123.431 44.8412 123.407 44.7409 123.407 44.6207C123.407 44.4425 123.477 44.3056 123.617 44.2098C123.758 44.1118 123.974 44.0584 124.265 44.0495L124.569 44.0395V43.9326C124.569 43.7834 124.537 43.6798 124.472 43.6219C124.408 43.564 124.317 43.5351 124.199 43.5351C124.105 43.5351 124.016 43.5495 123.931 43.5785C123.847 43.6052 123.768 43.6364 123.694 43.672L123.604 43.4516C123.682 43.4093 123.774 43.3736 123.881 43.3447C123.988 43.3135 124.099 43.2979 124.215 43.2979ZM124.302 44.2533C124.079 44.2622 123.925 44.2978 123.838 44.3601C123.753 44.4225 123.711 44.5105 123.711 44.624C123.711 44.7242 123.741 44.7977 123.801 44.8445C123.863 44.8913 123.942 44.9146 124.038 44.9146C124.19 44.9146 124.315 44.8734 124.416 44.7911C124.516 44.7064 124.566 44.5773 124.566 44.4036V44.2432L124.302 44.2533ZM125.704 45.1184H125.41V42.5797H125.704V45.1184ZM126.949 43.2979C127.167 43.2979 127.329 43.3458 127.433 43.4415C127.538 43.5373 127.59 43.6898 127.59 43.8992V45.1184H127.376L127.32 44.8645H127.306C127.255 44.9291 127.202 44.9837 127.146 45.0282C127.092 45.0705 127.03 45.1017 126.959 45.1217C126.89 45.1418 126.805 45.1518 126.705 45.1518C126.598 45.1518 126.501 45.1329 126.414 45.095C126.33 45.0572 126.263 44.9993 126.214 44.9213C126.165 44.8412 126.14 44.7409 126.14 44.6207C126.14 44.4425 126.211 44.3056 126.351 44.2098C126.491 44.1118 126.707 44.0584 126.999 44.0495L127.303 44.0395V43.9326C127.303 43.7834 127.271 43.6798 127.206 43.6219C127.141 43.564 127.05 43.5351 126.932 43.5351C126.839 43.5351 126.75 43.5495 126.665 43.5785C126.58 43.6052 126.501 43.6364 126.428 43.672L126.338 43.4516C126.416 43.4093 126.508 43.3736 126.615 43.3447C126.722 43.3135 126.833 43.2979 126.949 43.2979ZM127.036 44.2533C126.813 44.2622 126.658 44.2978 126.571 44.3601C126.487 44.4225 126.444 44.5105 126.444 44.624C126.444 44.7242 126.475 44.7977 126.535 44.8445C126.597 44.8913 126.676 44.9146 126.772 44.9146C126.923 44.9146 127.049 44.8734 127.149 44.7911C127.249 44.7064 127.3 44.5773 127.3 44.4036V44.2432L127.036 44.2533ZM129.309 44.624C129.309 44.7398 129.28 44.8367 129.222 44.9146C129.164 44.9926 129.082 45.0516 128.975 45.0917C128.868 45.1318 128.741 45.1518 128.594 45.1518C128.469 45.1518 128.361 45.1418 128.27 45.1217C128.181 45.1017 128.102 45.0739 128.033 45.0382V44.771C128.104 44.8066 128.19 44.84 128.29 44.8712C128.393 44.9002 128.496 44.9146 128.601 44.9146C128.75 44.9146 128.858 44.8913 128.925 44.8445C128.992 44.7955 129.025 44.7309 129.025 44.6508C129.025 44.6062 129.013 44.5661 128.988 44.5305C128.964 44.4949 128.919 44.4592 128.855 44.4236C128.792 44.388 128.702 44.3479 128.584 44.3034C128.468 44.2588 128.369 44.2143 128.287 44.1697C128.204 44.1252 128.141 44.0718 128.096 44.0094C128.052 43.9471 128.03 43.8669 128.03 43.7689C128.03 43.6175 128.091 43.5006 128.213 43.4182C128.338 43.3358 128.501 43.2946 128.701 43.2946C128.81 43.2946 128.911 43.3057 129.005 43.328C129.101 43.348 129.19 43.377 129.272 43.4148L129.172 43.6486C129.123 43.6264 129.071 43.6074 129.015 43.5919C128.962 43.574 128.907 43.5607 128.851 43.5518C128.796 43.5406 128.739 43.5351 128.681 43.5351C128.561 43.5351 128.468 43.5551 128.404 43.5952C128.341 43.6331 128.31 43.6854 128.31 43.7522C128.31 43.8012 128.325 43.8435 128.354 43.8791C128.383 43.9125 128.43 43.9459 128.497 43.9793C128.566 44.0105 128.658 44.0484 128.771 44.0929C128.885 44.1352 128.982 44.1787 129.062 44.2232C129.142 44.2677 129.203 44.3223 129.246 44.3869C129.288 44.4492 129.309 44.5283 129.309 44.624ZM130.42 43.2979C130.638 43.2979 130.799 43.3458 130.904 43.4415C131.009 43.5373 131.061 43.6898 131.061 43.8992V45.1184H130.847L130.79 44.8645H130.777C130.726 44.9291 130.672 44.9837 130.617 45.0282C130.563 45.0705 130.501 45.1017 130.43 45.1217C130.361 45.1418 130.276 45.1518 130.176 45.1518C130.069 45.1518 129.972 45.1329 129.885 45.095C129.801 45.0572 129.734 44.9993 129.685 44.9213C129.636 44.8412 129.611 44.7409 129.611 44.6207C129.611 44.4425 129.681 44.3056 129.822 44.2098C129.962 44.1118 130.178 44.0584 130.47 44.0495L130.774 44.0395V43.9326C130.774 43.7834 130.742 43.6798 130.677 43.6219C130.612 43.564 130.521 43.5351 130.403 43.5351C130.309 43.5351 130.22 43.5495 130.136 43.5785C130.051 43.6052 129.972 43.6364 129.899 43.672L129.808 43.4516C129.886 43.4093 129.979 43.3736 130.086 43.3447C130.193 43.3135 130.304 43.2979 130.42 43.2979ZM130.507 44.2533C130.284 44.2622 130.129 44.2978 130.042 44.3601C129.958 44.4225 129.915 44.5105 129.915 44.624C129.915 44.7242 129.945 44.7977 130.006 44.8445C130.068 44.8913 130.147 44.9146 130.243 44.9146C130.394 44.9146 130.52 44.8734 130.62 44.7911C130.72 44.7064 130.77 44.5773 130.77 44.4036V44.2432L130.507 44.2533Z" fill="url(#paint8_linear_166_291)"/>
<path d="M62.5975 41.8412C62.417 41.8412 62.2554 41.8769 62.1127 41.9483C61.9742 42.0196 61.8566 42.1225 61.7601 42.2568C61.6636 42.3869 61.5901 42.5464 61.5397 42.7353C61.4935 42.9242 61.4705 43.1362 61.4705 43.3712C61.4705 43.6903 61.5082 43.9631 61.5838 44.1898C61.6636 44.4122 61.7874 44.5822 61.9553 44.6998C62.1232 44.8173 62.3373 44.8761 62.5975 44.8761C62.7822 44.8761 62.9648 44.8551 63.1453 44.8131C63.33 44.7711 63.5294 44.7124 63.7434 44.6368V45.4364C63.5462 45.5162 63.351 45.575 63.1579 45.6127C62.9648 45.6505 62.7486 45.6694 62.5094 45.6694C62.0476 45.6694 61.6656 45.575 61.3634 45.3861C61.0654 45.193 60.845 44.9243 60.7023 44.5801C60.5596 44.2317 60.4882 43.8267 60.4882 43.365C60.4882 43.0249 60.5344 42.7143 60.6268 42.4331C60.7191 42.1477 60.8534 41.9021 61.0297 41.6964C61.2102 41.4907 61.4306 41.3312 61.6908 41.2179C61.9553 41.1046 62.2575 41.0479 62.5975 41.0479C62.82 41.0479 63.0424 41.0773 63.2649 41.136C63.4916 41.1906 63.7078 41.2662 63.9134 41.3627L63.6049 42.1372C63.437 42.0574 63.267 41.9882 63.0949 41.9294C62.927 41.8706 62.7612 41.8412 62.5975 41.8412ZM68.061 43.8812C68.061 44.1667 68.0211 44.4206 67.9413 44.6431C67.8658 44.8656 67.7545 45.0545 67.6076 45.2098C67.4649 45.3609 67.2907 45.4763 67.085 45.5561C66.8793 45.6316 66.6464 45.6694 66.3861 45.6694C66.1469 45.6694 65.9244 45.6316 65.7187 45.5561C65.5172 45.4763 65.343 45.3609 65.1961 45.2098C65.0492 45.0545 64.9338 44.8656 64.8498 44.6431C64.7701 44.4206 64.7302 44.1667 64.7302 43.8812C64.7302 43.4993 64.7974 43.1782 64.9317 42.9179C65.066 42.6535 65.2591 42.452 65.5109 42.3135C65.7628 42.1749 66.0608 42.1057 66.405 42.1057C66.7282 42.1057 67.0137 42.1749 67.2613 42.3135C67.509 42.452 67.7042 42.6535 67.8469 42.9179C67.9896 43.1782 68.061 43.4993 68.061 43.8812ZM65.6872 43.8812C65.6872 44.1079 65.7103 44.2989 65.7565 44.4542C65.8069 44.6053 65.8845 44.7208 65.9895 44.8005C66.0944 44.8761 66.2308 44.9138 66.3987 44.9138C66.5666 44.9138 66.7009 44.8761 66.8017 44.8005C66.9066 44.7208 66.9822 44.6053 67.0284 44.4542C67.0787 44.2989 67.1039 44.1079 67.1039 43.8812C67.1039 43.6546 67.0787 43.4657 67.0284 43.3146C66.9822 43.1635 66.9066 43.0501 66.8017 42.9746C66.6967 42.899 66.5603 42.8612 66.3924 42.8612C66.1448 42.8612 65.9643 42.9473 65.8509 43.1194C65.7418 43.2873 65.6872 43.5412 65.6872 43.8812ZM71.103 42.1057C71.4724 42.1057 71.7683 42.2064 71.9908 42.4079C72.2132 42.6052 72.3245 42.9242 72.3245 43.365V45.6064H71.3863V43.5979C71.3863 43.3503 71.3422 43.1656 71.2541 43.0438C71.1659 42.9179 71.0253 42.8549 70.8322 42.8549C70.5468 42.8549 70.3516 42.9536 70.2467 43.1509C70.1417 43.344 70.0893 43.6231 70.0893 43.9883V45.6064H69.1511V42.1686H69.8689L69.9948 42.6094H70.0452C70.1207 42.4919 70.2131 42.3974 70.3222 42.3261C70.4314 42.2505 70.5531 42.1959 70.6874 42.1624C70.8217 42.1246 70.9603 42.1057 71.103 42.1057ZM75.0522 44.9201C75.1571 44.9201 75.2579 44.9097 75.3544 44.8887C75.451 44.8677 75.5475 44.8425 75.6441 44.8131V45.512C75.5433 45.554 75.4174 45.5897 75.2663 45.619C75.1194 45.6526 74.9578 45.6694 74.7815 45.6694C74.5758 45.6694 74.3911 45.6358 74.2274 45.5687C74.0679 45.5015 73.9398 45.3861 73.8433 45.2224C73.751 45.0545 73.7048 44.8236 73.7048 44.5298V42.8738H73.2577V42.4772L73.774 42.1624L74.0448 41.4383H74.6429V42.1686H75.6063V42.8738H74.6429V44.5298C74.6429 44.6599 74.6807 44.7585 74.7563 44.8257C74.8318 44.8887 74.9305 44.9201 75.0522 44.9201ZM78.0593 42.0994C78.521 42.0994 78.8736 42.2001 79.1171 42.4016C79.3647 42.5989 79.4886 42.9032 79.4886 43.3146V45.6064H78.8337L78.6511 45.1405H78.626C78.5294 45.2622 78.4287 45.363 78.3237 45.4427C78.223 45.5225 78.1055 45.5792 77.9711 45.6127C77.841 45.6505 77.6794 45.6694 77.4863 45.6694C77.2848 45.6694 77.1022 45.6316 76.9385 45.5561C76.779 45.4763 76.6531 45.3567 76.5608 45.1972C76.4684 45.0335 76.4222 44.8278 76.4222 44.5801C76.4222 44.215 76.5503 43.9463 76.8063 43.7742C77.0624 43.5979 77.4464 43.5014 77.9585 43.4846L78.5567 43.4657V43.3146C78.5567 43.1341 78.5084 43.0019 78.4119 42.9179C78.3195 42.834 78.1894 42.792 78.0215 42.792C77.8536 42.792 77.6899 42.8172 77.5304 42.8675C77.3709 42.9137 77.2114 42.9725 77.0519 43.0438L76.7434 42.4079C76.928 42.3114 77.1316 42.2358 77.3541 42.1812C77.5808 42.1267 77.8158 42.0994 78.0593 42.0994ZM78.1915 44.0261C77.8893 44.0345 77.6794 44.089 77.5619 44.1898C77.4443 44.2905 77.3856 44.4227 77.3856 44.5864C77.3856 44.7292 77.4276 44.832 77.5115 44.895C77.5955 44.9537 77.7046 44.9831 77.8389 44.9831C78.0404 44.9831 78.2104 44.9243 78.3489 44.8068C78.4874 44.6851 78.5567 44.5151 78.5567 44.2968V44.0135L78.1915 44.0261ZM82.1614 45.6694C81.8214 45.6694 81.5318 45.6085 81.2926 45.4868C81.0533 45.3609 80.8707 45.1678 80.7448 44.9076C80.6188 44.6473 80.5559 44.3136 80.5559 43.9064C80.5559 43.4867 80.6272 43.1446 80.77 42.8801C80.9127 42.6157 81.11 42.4205 81.3618 42.2946C81.6179 42.1686 81.9117 42.1057 82.2433 42.1057C82.4784 42.1057 82.6819 42.1288 82.854 42.1749C83.0303 42.2211 83.1836 42.2757 83.3137 42.3386L83.0366 43.0627C82.8897 43.004 82.7512 42.9557 82.6211 42.9179C82.4952 42.8801 82.3692 42.8612 82.2433 42.8612C82.0796 42.8612 81.9432 42.9011 81.834 42.9809C81.7249 43.0564 81.643 43.1719 81.5885 43.3272C81.5381 43.4783 81.5129 43.6693 81.5129 43.9001C81.5129 44.1268 81.5402 44.3157 81.5948 44.4668C81.6535 44.6137 81.7375 44.725 81.8466 44.8005C81.9558 44.8719 82.088 44.9076 82.2433 44.9076C82.4406 44.9076 82.6148 44.8824 82.7659 44.832C82.917 44.7774 83.0639 44.704 83.2066 44.6116V45.4113C83.0639 45.5036 82.9128 45.5687 82.7533 45.6064C82.598 45.6484 82.4007 45.6694 82.1614 45.6694ZM85.7609 44.9201C85.8658 44.9201 85.9666 44.9097 86.0631 44.8887C86.1597 44.8677 86.2562 44.8425 86.3527 44.8131V45.512C86.252 45.554 86.1261 45.5897 85.975 45.619C85.828 45.6526 85.6664 45.6694 85.4901 45.6694C85.2845 45.6694 85.0998 45.6358 84.9361 45.5687C84.7766 45.5015 84.6485 45.3861 84.552 45.2224C84.4596 45.0545 84.4135 44.8236 84.4135 44.5298V42.8738H83.9664V42.4772L84.4827 42.1624L84.7535 41.4383H85.3516V42.1686H86.315V42.8738H85.3516V44.5298C85.3516 44.6599 85.3894 44.7585 85.465 44.8257C85.5405 44.8887 85.6392 44.9201 85.7609 44.9201ZM90.9904 41.1109C91.3892 41.1109 91.7229 41.1486 91.9915 41.2242C92.2643 41.2956 92.4679 41.4152 92.6022 41.5831C92.7408 41.7468 92.81 41.9693 92.81 42.2505C92.81 42.4184 92.7827 42.5716 92.7282 42.7101C92.6736 42.8487 92.5938 42.962 92.4889 43.0501C92.3882 43.1383 92.2643 43.1949 92.1174 43.2201V43.2516C92.2685 43.281 92.405 43.3335 92.5267 43.409C92.6484 43.4846 92.745 43.5937 92.8163 43.7364C92.8877 43.8792 92.9234 44.068 92.9234 44.3031C92.9234 44.5759 92.8562 44.811 92.7219 45.0083C92.5918 45.2014 92.4029 45.3504 92.1552 45.4553C91.9075 45.5561 91.6137 45.6064 91.2737 45.6064H89.5926V41.1109H90.9904ZM91.0974 42.8927C91.3745 42.8927 91.5654 42.8487 91.6704 42.7605C91.7795 42.6724 91.8341 42.5443 91.8341 42.3764C91.8341 42.2043 91.7711 42.0805 91.6452 42.0049C91.5193 41.9294 91.3199 41.8916 91.047 41.8916H90.5433V42.8927H91.0974ZM90.5433 43.6483V44.8194H91.1667C91.4521 44.8194 91.6515 44.7648 91.7648 44.6557C91.8782 44.5424 91.9348 44.3934 91.9348 44.2087C91.9348 44.0953 91.9096 43.9967 91.8593 43.9127C91.8131 43.8288 91.7313 43.7637 91.6137 43.7175C91.4962 43.6714 91.3367 43.6483 91.1352 43.6483H90.5433ZM97.1852 43.8812C97.1852 44.1667 97.1453 44.4206 97.0656 44.6431C96.99 44.8656 96.8788 45.0545 96.7319 45.2098C96.5891 45.3609 96.4149 45.4763 96.2093 45.5561C96.0036 45.6316 95.7706 45.6694 95.5104 45.6694C95.2711 45.6694 95.0486 45.6316 94.843 45.5561C94.6415 45.4763 94.4673 45.3609 94.3204 45.2098C94.1734 45.0545 94.058 44.8656 93.9741 44.6431C93.8943 44.4206 93.8544 44.1667 93.8544 43.8812C93.8544 43.4993 93.9216 43.1782 94.0559 42.9179C94.1902 42.6535 94.3833 42.452 94.6352 42.3135C94.887 42.1749 95.1851 42.1057 95.5293 42.1057C95.8525 42.1057 96.1379 42.1749 96.3856 42.3135C96.6332 42.452 96.8284 42.6535 96.9711 42.9179C97.1138 43.1782 97.1852 43.4993 97.1852 43.8812ZM94.8115 43.8812C94.8115 44.1079 94.8346 44.2989 94.8807 44.4542C94.9311 44.6053 95.0088 44.7208 95.1137 44.8005C95.2186 44.8761 95.3551 44.9138 95.523 44.9138C95.6909 44.9138 95.8252 44.8761 95.9259 44.8005C96.0309 44.7208 96.1064 44.6053 96.1526 44.4542C96.203 44.2989 96.2281 44.1079 96.2281 43.8812C96.2281 43.6546 96.203 43.4657 96.1526 43.3146C96.1064 43.1635 96.0309 43.0501 95.9259 42.9746C95.821 42.899 95.6846 42.8612 95.5167 42.8612C95.269 42.8612 95.0885 42.9473 94.9752 43.1194C94.866 43.2873 94.8115 43.5412 94.8115 43.8812ZM101.398 43.8812C101.398 44.1667 101.358 44.4206 101.279 44.6431C101.203 44.8656 101.092 45.0545 100.945 45.2098C100.802 45.3609 100.628 45.4763 100.422 45.5561C100.217 45.6316 99.9837 45.6694 99.7235 45.6694C99.4842 45.6694 99.2618 45.6316 99.0561 45.5561C98.8546 45.4763 98.6804 45.3609 98.5335 45.2098C98.3866 45.0545 98.2711 44.8656 98.1872 44.6431C98.1074 44.4206 98.0676 44.1667 98.0676 43.8812C98.0676 43.4993 98.1347 43.1782 98.269 42.9179C98.4034 42.6535 98.5965 42.452 98.8483 42.3135C99.1002 42.1749 99.3982 42.1057 99.7424 42.1057C100.066 42.1057 100.351 42.1749 100.599 42.3135C100.846 42.452 101.042 42.6535 101.184 42.9179C101.327 43.1782 101.398 43.4993 101.398 43.8812ZM99.0246 43.8812C99.0246 44.1079 99.0477 44.2989 99.0939 44.4542C99.1442 44.6053 99.2219 44.7208 99.3268 44.8005C99.4318 44.8761 99.5682 44.9138 99.7361 44.9138C99.904 44.9138 100.038 44.8761 100.139 44.8005C100.244 44.7208 100.32 44.6053 100.366 44.4542C100.416 44.2989 100.441 44.1079 100.441 43.8812C100.441 43.6546 100.416 43.4657 100.366 43.3146C100.32 43.1635 100.244 43.0501 100.139 42.9746C100.034 42.899 99.8977 42.8612 99.7298 42.8612C99.4821 42.8612 99.3016 42.9473 99.1883 43.1194C99.0792 43.2873 99.0246 43.5412 99.0246 43.8812ZM103.427 42.962C103.427 43.0921 103.42 43.2222 103.408 43.3524C103.399 43.4783 103.389 43.6063 103.376 43.7364H103.389C103.431 43.6777 103.473 43.6189 103.515 43.5601C103.561 43.5014 103.607 43.4426 103.653 43.3838C103.699 43.3251 103.748 43.2684 103.798 43.2138L104.761 42.1686H105.819L104.453 43.6609L105.901 45.6064H104.818L103.83 44.215L103.427 44.5361V45.6064H102.488V40.8212H103.427V42.962ZM109.805 41.9357C109.805 42.0658 109.801 42.1938 109.793 42.3198C109.784 42.4457 109.776 42.5443 109.768 42.6157H109.805C109.898 42.473 110.022 42.3533 110.177 42.2568C110.332 42.1561 110.534 42.1057 110.781 42.1057C111.167 42.1057 111.48 42.2568 111.719 42.559C111.959 42.857 112.078 43.2978 112.078 43.8812C112.078 44.2716 112.022 44.6011 111.908 44.8698C111.799 45.1342 111.646 45.3336 111.449 45.4679C111.251 45.6022 111.021 45.6694 110.756 45.6694C110.504 45.6694 110.305 45.6253 110.158 45.5372C110.015 45.4448 109.898 45.342 109.805 45.2287H109.742L109.585 45.6064H108.867V40.8212H109.805V41.9357ZM110.479 42.8549C110.315 42.8549 110.185 42.8885 110.089 42.9557C109.992 43.0228 109.921 43.1257 109.875 43.2642C109.833 43.3985 109.81 43.5685 109.805 43.7742V43.875C109.805 44.2066 109.854 44.4626 109.95 44.6431C110.051 44.8194 110.231 44.9076 110.492 44.9076C110.685 44.9076 110.838 44.8194 110.951 44.6431C111.065 44.4626 111.121 44.2045 111.121 43.8687C111.121 43.5329 111.063 43.281 110.945 43.1131C110.832 42.941 110.676 42.8549 110.479 42.8549ZM112.552 42.1686H113.579L114.227 44.1016C114.248 44.1646 114.265 44.2275 114.278 44.2905C114.294 44.3535 114.307 44.4185 114.315 44.4857C114.328 44.5529 114.336 44.6242 114.34 44.6998H114.359C114.372 44.5906 114.389 44.4878 114.41 44.3913C114.435 44.2905 114.462 44.194 114.492 44.1016L115.128 42.1686H116.135L114.68 46.0472C114.592 46.2823 114.477 46.4795 114.334 46.639C114.196 46.7986 114.034 46.9182 113.849 46.9979C113.665 47.0777 113.463 47.1176 113.245 47.1176C113.14 47.1176 113.048 47.1113 112.968 47.0987C112.892 47.0903 112.825 47.0798 112.766 47.0672V46.3242C112.813 46.3326 112.867 46.341 112.93 46.3494C112.997 46.3578 113.067 46.362 113.138 46.362C113.268 46.362 113.379 46.3347 113.472 46.2802C113.568 46.2256 113.648 46.15 113.711 46.0535C113.774 45.9611 113.824 45.8604 113.862 45.7513L113.919 45.5813L112.552 42.1686Z" fill="url(#paint9_linear_166_291)"/>
<defs>
<linearGradient id="paint0_linear_166_291" x1="18.5" y1="0" x2="18.5" y2="52" gradientUnits="userSpaceOnUse">
<stop stop-color="#C3E4A1"/>
<stop offset="1" stop-color="#6C7E59"/>
</linearGradient>
<linearGradient id="paint1_linear_166_291" x1="104.884" y1="0" x2="104.884" y2="49.7079" gradientUnits="userSpaceOnUse">
<stop stop-color="#C3E4A1"/>
<stop offset="1" stop-color="#6C7E59"/>
</linearGradient>
<linearGradient id="paint2_linear_166_291" x1="47.2432" y1="20.7117" x2="47.2432" y2="46.9978" gradientUnits="userSpaceOnUse">
<stop stop-color="#C3E4A1"/>
<stop offset="1" stop-color="#6C7E59"/>
</linearGradient>
<linearGradient id="paint3_linear_166_291" x1="51.5508" y1="32.0852" x2="51.5508" y2="5.79907" gradientUnits="userSpaceOnUse">
<stop stop-color="#C3E4A1"/>
<stop offset="1" stop-color="#6C7E59"/>
</linearGradient>
<linearGradient id="paint4_linear_166_291" x1="128.577" y1="40.1638" x2="128.577" y2="47.3218" gradientUnits="userSpaceOnUse">
<stop stop-color="white"/>
<stop offset="1" stop-color="#999999"/>
</linearGradient>
<linearGradient id="paint5_linear_166_291" x1="128.577" y1="40.1638" x2="128.577" y2="47.3218" gradientUnits="userSpaceOnUse">
<stop stop-color="white"/>
<stop offset="1" stop-color="#999999"/>
</linearGradient>
<linearGradient id="paint6_linear_166_291" x1="126.192" y1="41.1184" x2="126.192" y2="46.3676" gradientUnits="userSpaceOnUse">
<stop/>
<stop offset="1" stop-color="#666666"/>
</linearGradient>
<linearGradient id="paint7_linear_166_291" x1="135.11" y1="41.1184" x2="135.11" y2="46.1184" gradientUnits="userSpaceOnUse">
<stop/>
<stop offset="1" stop-color="#666666"/>
</linearGradient>
<linearGradient id="paint8_linear_166_291" x1="126.43" y1="41.1184" x2="126.43" y2="46.3676" gradientUnits="userSpaceOnUse">
<stop stop-color="white"/>
<stop offset="1" stop-color="#999999"/>
</linearGradient>
<linearGradient id="paint9_linear_166_291" x1="88.623" y1="38.6064" x2="88.623" y2="48.6064" gradientUnits="userSpaceOnUse">
<stop stop-color="white"/>
<stop offset="1" stop-color="#999999"/>
</linearGradient>
</defs>
</svg>
